<svg width="18" height="18" viewBox="0 0 18 18" fill="none" xmlns="http://www.w3.org/2000/svg">
<path d="M17 13.6364C17 13.8409 16.9621 14.108 16.8864 14.4375C16.8106 14.767 16.7311 15.0265 16.6477 15.2159C16.4886 15.5947 16.0265 15.9962 15.2614 16.4205C14.5492 16.8068 13.8447 17 13.1477 17C12.9432 17 12.7424 16.9867 12.5455 16.9602C12.3485 16.9337 12.1307 16.8864 11.892 16.8182C11.6534 16.75 11.4754 16.6951 11.358 16.6534C11.2405 16.6117 11.0303 16.5341 10.7273 16.4205C10.4242 16.3068 10.2386 16.2386 10.1705 16.2159C9.42803 15.9508 8.76515 15.6364 8.18182 15.2727C7.2197 14.6742 6.2197 13.8561 5.18182 12.8182C4.14394 11.7803 3.32576 10.7803 2.72727 9.81818C2.36364 9.23485 2.04924 8.57197 1.78409 7.82955C1.76136 7.76136 1.69318 7.57576 1.57955 7.27273C1.46591 6.9697 1.38826 6.75947 1.34659 6.64205C1.30492 6.52462 1.25 6.34659 1.18182 6.10795C1.11364 5.86932 1.06629 5.65152 1.03977 5.45455C1.01326 5.25758 1 5.05682 1 4.85227C1 4.1553 1.19318 3.45076 1.57955 2.73864C2.00379 1.97348 2.4053 1.51136 2.78409 1.35227C2.97348 1.26894 3.23295 1.18939 3.5625 1.11364C3.89205 1.03788 4.15909 1 4.36364 1C4.4697 1 4.54924 1.01136 4.60227 1.03409C4.73864 1.07955 4.93939 1.36742 5.20455 1.89773C5.28788 2.04167 5.40152 2.24621 5.54545 2.51136C5.68939 2.77652 5.82197 3.01705 5.94318 3.23295C6.06439 3.44886 6.18182 3.65152 6.29545 3.84091C6.31818 3.87121 6.38447 3.96591 6.49432 4.125C6.60417 4.28409 6.68561 4.41856 6.73864 4.52841C6.79167 4.63826 6.81818 4.74621 6.81818 4.85227C6.81818 5.00379 6.71023 5.19318 6.49432 5.42045C6.27841 5.64773 6.04356 5.85606 5.78977 6.04545C5.53598 6.23485 5.30114 6.43561 5.08523 6.64773C4.86932 6.85985 4.76136 7.03409 4.76136 7.17045C4.76136 7.23864 4.7803 7.32386 4.81818 7.42614C4.85606 7.52841 4.88826 7.60606 4.91477 7.65909C4.94129 7.71212 4.99432 7.80303 5.07386 7.93182C5.15341 8.06061 5.19697 8.13258 5.20455 8.14773C5.7803 9.18561 6.43939 10.0758 7.18182 10.8182C7.92424 11.5606 8.81439 12.2197 9.85227 12.7955C9.86742 12.803 9.93939 12.8466 10.0682 12.9261C10.197 13.0057 10.2879 13.0587 10.3409 13.0852C10.3939 13.1117 10.4716 13.1439 10.5739 13.1818C10.6761 13.2197 10.7614 13.2386 10.8295 13.2386C10.9659 13.2386 11.1402 13.1307 11.3523 12.9148C11.5644 12.6989 11.7652 12.464 11.9545 12.2102C12.1439 11.9564 12.3523 11.7216 12.5795 11.5057C12.8068 11.2898 12.9962 11.1818 13.1477 11.1818C13.2538 11.1818 13.3617 11.2083 13.4716 11.2614C13.5814 11.3144 13.7159 11.3958 13.875 11.5057C14.0341 11.6155 14.1288 11.6818 14.1591 11.7045C14.3485 11.8182 14.5511 11.9356 14.767 12.0568C14.983 12.178 15.2235 12.3106 15.4886 12.4545C15.7538 12.5985 15.9583 12.7121 16.1023 12.7955C16.6326 13.0606 16.9205 13.2614 16.9659 13.3977C16.9886 13.4508 17 13.5303 17 13.6364Z" fill="#0F2A59"/>
</svg>
