<svg width="18" height="18" viewBox="0 0 18 18" fill="none" xmlns="http://www.w3.org/2000/svg">
<path d="M17.6203 4.66709C17.5178 4.28655 17.3173 3.93958 17.0386 3.66092C16.76 3.38225 16.413 3.18167 16.0325 3.07924C14.6311 2.69995 9 2.69995 9 2.69995C9 2.69995 3.36887 2.69995 1.96752 3.07924C1.587 3.18167 1.24005 3.38225 0.961397 3.66092C0.682748 3.93958 0.482174 4.28655 0.379749 4.66709C0.118085 6.09634 -0.00889312 7.54698 0.000483683 8.99995C-0.00889312 10.4529 0.118085 11.9036 0.379749 13.3328C0.482174 13.7134 0.682748 14.0603 0.961397 14.339C1.24005 14.6177 1.587 14.8182 1.96752 14.9207C3.36887 15.3 9 15.3 9 15.3C9 15.3 14.6311 15.3 16.0325 14.9207C16.413 14.8182 16.76 14.6177 17.0386 14.339C17.3173 14.0603 17.5178 13.7134 17.6203 13.3328C17.8819 11.9036 18.0089 10.4529 17.9995 8.99995C18.0089 7.54698 17.8819 6.09634 17.6203 4.66709ZM7.2001 11.7V6.29995L11.8734 8.99995L7.2001 11.7Z" fill="#0F2A59"/>
</svg>
